<?xml version="1.0" standalone="no"?>
<!DOCTYPE svg PUBLIC "-//W3C//DTD SVG 20010904//EN"
 "http://www.w3.org/TR/2001/REC-SVG-20010904/DTD/svg10.dtd">
<svg version="1.0" xmlns="http://www.w3.org/2000/svg"
 width="930.000000pt" height="477.000000pt" viewBox="0 0 930.000000 477.000000"
 preserveAspectRatio="xMidYMid meet">

<g transform="translate(0.000000,477.000000) scale(0.100000,-0.100000)"
fill="#000000" stroke="none">
<path d="M0 2385 l0 -2385 4650 0 4650 0 0 2385 0 2385 -4650 0 -4650 0 0
-2385z m7377 1170 c27 -12 80 -15 229 -15 l194 0 0 -1355 0 -1355 -1760 0
-1760 0 0 300 0 300 45 0 45 0 0 -255 0 -255 1675 0 1675 0 0 1265 0 1265
-110 0 -110 0 7 -27 c14 -49 8 -146 -11 -183 -52 -100 -165 -150 -274 -120
-57 15 -126 79 -148 135 -16 44 -16 138 1 178 7 16 -61 17 -1349 17 l-1356 0
0 -255 0 -255 -45 0 -45 0 0 300 0 300 1443 1 c1184 0 1448 3 1477 14 47 18
133 18 177 0z m-5961 -812 c41 -65 107 -167 146 -227 l70 -109 110 169 c60 93
126 194 146 224 l37 55 85 0 85 0 3 -462 2 -463 -80 0 -80 0 -2 324 -3 324
-148 -229 c-82 -126 -152 -229 -155 -229 -4 0 -72 102 -152 227 l-145 226 -3
-322 -2 -321 -80 0 -80 0 0 465 0 465 85 0 85 0 76 -117z m3677 107 c112 -18
202 -82 254 -182 24 -46 28 -64 28 -143 0 -78 -4 -97 -27 -146 -36 -71 -89
-125 -158 -158 -47 -22 -72 -27 -163 -29 -124 -4 -117 -14 -72 95 l23 58 69 6
c81 6 114 25 150 86 49 84 16 196 -70 237 -26 12 -64 16 -151 16 l-116 0 0
-385 0 -386 -77 3 -78 3 -3 455 c-1 250 0 461 3 468 5 15 298 17 388 2z m2387
-460 l0 -471 -77 3 -78 3 -3 455 c-1 250 0 461 3 468 3 8 29 12 80 12 l75 0 0
-470z m-1120 246 l0 -125 47 -3 47 -3 18 -70 c10 -38 18 -73 18 -77 0 -5 -29
-8 -65 -8 l-65 0 0 -113 c0 -138 4 -144 100 -149 l64 -3 18 -70 c27 -105 32
-99 -80 -92 -108 5 -156 23 -204 74 -56 58 -58 75 -58 416 l0 314 63 15 c105
27 97 35 97 -106z m-3707 -64 l57 -29 0 24 c0 22 3 23 80 23 l80 0 0 -335 0
-335 -80 0 -80 0 0 188 c0 161 -3 193 -19 228 -56 122 -228 147 -314 45 -74
-89 -55 -216 41 -282 30 -20 48 -24 108 -24 l72 0 23 -62 c12 -34 22 -65 21
-70 -8 -31 -170 -43 -243 -18 -174 61 -267 256 -210 443 22 75 81 152 145 191
91 57 219 62 319 13z m730 17 c34 -11 66 -25 72 -30 15 -15 25 -10 25 11 0 18
7 20 80 20 l80 0 0 -335 0 -336 -77 3 -78 3 -5 200 c-5 210 -7 221 -57 266
-44 41 -73 52 -136 52 -48 0 -65 -5 -99 -29 -53 -38 -81 -91 -81 -158 0 -115
95 -197 213 -183 l47 6 27 -67 c31 -78 26 -86 -51 -98 -197 -29 -357 86 -393
284 -33 186 85 366 263 401 69 14 104 12 170 -10z m814 -13 c57 -29 111 -89
139 -156 16 -38 19 -78 22 -272 l4 -228 -80 0 -81 0 -3 213 c-3 203 -4 213
-26 245 -32 44 -77 66 -136 65 -52 -1 -84 -19 -120 -67 -19 -25 -21 -44 -24
-242 l-3 -214 -80 0 -79 0 0 335 0 335 80 0 c73 0 80 -2 80 -20 0 -25 1 -25
45 1 78 46 178 48 262 5z m1706 -4 l57 -29 0 24 c0 22 3 23 80 23 l80 0 0
-335 0 -335 -80 0 -80 0 0 188 c0 161 -3 193 -19 228 -56 122 -228 147 -314
45 -74 -88 -55 -216 41 -282 28 -19 49 -24 106 -25 l71 -1 27 -64 c14 -35 25
-66 22 -70 -9 -16 -99 -31 -161 -27 -171 9 -299 143 -311 322 -17 270 245 454
481 338z m1058 28 c111 -21 210 -97 256 -196 25 -54 40 -156 29 -198 l-6 -26
-255 0 c-158 0 -255 -4 -255 -10 0 -5 16 -25 35 -44 51 -51 133 -69 204 -45
26 9 40 8 84 -10 28 -11 65 -25 81 -31 l29 -11 -27 -28 c-15 -16 -53 -41 -84
-57 -51 -26 -67 -29 -152 -29 -81 0 -103 4 -145 25 -74 36 -138 101 -171 173
-25 53 -29 74 -29 147 0 105 29 176 101 245 54 53 84 70 156 89 65 18 82 19
149 6z m-4736 -873 c24 -19 5 -30 -29 -17 -14 5 -33 7 -41 4 -14 -6 -17 -10
-19 -35 -1 -5 21 -22 48 -37 55 -30 70 -57 53 -93 -18 -35 -69 -46 -114 -25
-25 12 -33 20 -26 27 8 8 18 7 32 -1 12 -6 34 -10 49 -8 21 2 28 9 30 29 3 21
-4 28 -38 44 -41 19 -70 48 -70 72 0 43 84 69 125 40z m206 -16 c24 -24 29
-38 29 -76 0 -59 -21 -100 -59 -113 -53 -19 -95 1 -118 57 -46 110 68 212 148
132z m209 14 c0 -11 -12 -15 -50 -15 l-50 0 0 -35 c0 -34 1 -35 40 -35 29 0
40 -4 40 -15 0 -11 -11 -15 -40 -15 l-40 0 0 -45 c0 -33 -4 -45 -15 -45 -12 0
-15 19 -15 110 l0 110 65 0 c51 0 65 -3 65 -15z m175 0 c0 -5 -15 -11 -32 -13
l-33 -3 0 -95 c0 -77 -3 -94 -15 -94 -12 0 -15 17 -15 95 l0 95 -35 0 c-25 0
-35 4 -35 15 0 13 14 15 83 13 46 -2 82 -7 82 -13z m50 -7 c3 -13 11 -54 18
-93 l13 -70 23 93 c33 132 46 126 82 -38 l12 -55 8 35 c4 19 12 61 19 93 8 39
16 57 27 57 8 0 13 -6 10 -12 -2 -7 -12 -57 -23 -111 -16 -88 -20 -98 -38 -95
-17 2 -24 18 -40 87 l-20 84 -21 -84 c-17 -68 -25 -85 -41 -87 -18 -3 -22 7
-37 85 -9 48 -20 98 -23 111 -5 16 -2 22 10 22 8 0 18 -10 21 -22z m367 -91
c34 -98 35 -107 18 -107 -12 0 -21 10 -25 30 -6 28 -10 30 -50 30 -39 0 -43
-2 -48 -30 -4 -19 -13 -30 -23 -30 -9 0 -14 6 -12 13 3 6 20 56 38 110 42 129
53 127 102 -16z m186 97 c30 -21 30 -77 1 -98 l-21 -15 25 -45 c22 -40 23 -46
9 -46 -10 0 -28 19 -42 45 -15 27 -32 45 -42 45 -15 0 -18 -9 -18 -45 0 -33
-4 -45 -15 -45 -12 0 -15 19 -15 110 l0 110 48 0 c27 0 57 -7 70 -16z m202 1
c0 -11 -12 -15 -50 -15 -49 0 -50 -1 -50 -30 0 -28 2 -30 40 -30 29 0 40 -4
40 -15 0 -11 -11 -15 -40 -15 l-40 0 0 -40 0 -40 50 0 c28 0 50 -4 50 -10 0
-6 -28 -10 -65 -10 l-65 0 0 110 0 110 65 0 c51 0 65 -3 65 -15z m240 0 c0
-11 -12 -15 -50 -15 -49 0 -50 -1 -50 -29 0 -28 3 -30 42 -33 60 -4 63 -28 3
-28 l-46 0 3 -37 3 -38 53 -3 c77 -4 63 -22 -18 -22 l-70 0 0 103 c0 57 3 107
7 110 3 4 33 7 65 7 45 0 58 -3 58 -15z m132 -75 l48 -85 0 88 c0 71 3 87 15
87 12 0 15 -19 15 -110 0 -98 -2 -110 -17 -110 -12 0 -34 29 -65 83 l-47 82
-1 -82 c0 -67 -3 -83 -15 -83 -12 0 -15 19 -15 111 0 100 2 110 18 107 9 -2
38 -40 64 -88z m269 79 c25 -13 14 -32 -14 -23 -61 20 -97 -9 -97 -78 0 -70
50 -110 98 -79 22 13 11 56 -15 59 -36 5 -27 22 12 22 l35 0 0 -49 c0 -44 -3
-50 -29 -61 -33 -13 -90 -1 -111 25 -20 24 -29 84 -19 120 17 61 86 93 140 64z
m99 -99 c0 -91 -3 -110 -15 -110 -12 0 -15 19 -15 110 0 91 3 110 15 110 12 0
15 -19 15 -110z m142 20 l48 -85 0 88 c0 71 3 87 15 87 12 0 15 -19 15 -110 0
-98 -2 -110 -17 -110 -12 0 -35 30 -65 83 l-47 82 -1 -82 c0 -67 -3 -83 -15
-83 -12 0 -15 19 -15 111 0 100 2 110 18 107 9 -2 38 -40 64 -88z m263 75 c0
-5 -21 -11 -47 -13 -46 -3 -48 -5 -48 -33 0 -27 2 -29 40 -29 29 0 40 -4 40
-15 0 -11 -11 -15 -40 -15 l-40 0 0 -40 0 -40 50 0 c28 0 50 -4 50 -10 0 -6
-28 -10 -65 -10 l-65 0 0 110 0 111 63 -3 c34 -2 62 -7 62 -13z m175 0 c0 -11
-12 -15 -50 -15 -49 0 -50 -1 -50 -29 0 -28 3 -30 42 -33 60 -4 63 -28 3 -28
l-46 0 3 -37 3 -38 53 -3 c77 -4 63 -22 -18 -22 l-70 0 0 110 0 110 65 0 c51
0 65 -3 65 -15z m174 -6 c33 -26 33 -53 1 -85 l-25 -25 26 -46 c24 -41 25 -45
8 -41 -10 2 -29 22 -42 46 -15 27 -30 42 -43 42 -16 0 -19 -7 -19 -45 0 -33
-4 -45 -15 -45 -12 0 -15 19 -15 110 l0 110 49 0 c34 0 56 -6 75 -21z m255 7
c16 -19 -1 -29 -31 -17 -30 11 -58 -3 -58 -28 0 -12 13 -24 38 -34 75 -30 93
-87 37 -123 -29 -19 -85 -13 -105 12 -19 22 -6 27 35 13 26 -10 41 -10 53 -3
32 21 20 48 -33 74 -40 20 -51 31 -53 53 -5 41 22 67 68 67 21 0 43 -6 49 -14z
m196 -1 c0 -5 -15 -11 -32 -13 l-33 -3 0 -95 c0 -77 -3 -94 -15 -94 -12 0 -15
17 -15 95 l0 95 -35 0 c-25 0 -35 4 -35 15 0 13 14 15 83 13 46 -2 82 -7 82
-13z m65 -63 c0 -87 16 -122 55 -122 35 0 45 27 45 119 0 65 3 81 15 81 12 0
15 -16 15 -82 0 -93 -13 -128 -52 -142 -35 -12 -82 7 -97 40 -6 14 -11 61 -11
104 0 64 3 80 15 80 12 0 15 -15 15 -78z m294 64 c52 -22 71 -97 41 -156 -20
-38 -43 -50 -99 -50 l-46 0 0 110 0 110 35 0 c20 0 51 -6 69 -14z m226 -1 c0
-11 -12 -15 -50 -15 -49 0 -50 -1 -50 -29 0 -28 3 -30 42 -33 60 -4 63 -28 3
-28 l-46 0 3 -37 3 -38 53 -3 c77 -4 63 -22 -18 -22 l-70 0 0 110 0 110 65 0
c51 0 65 -3 65 -15z m131 -75 l49 -85 0 88 c0 71 3 87 15 87 12 0 15 -19 15
-110 0 -98 -2 -110 -17 -110 -12 0 -35 29 -65 83 l-48 82 0 -82 c0 -67 -3 -83
-15 -83 -12 0 -15 19 -15 111 0 138 11 141 81 19z m279 75 c0 -10 -11 -15 -35
-15 l-35 0 0 -95 c0 -78 -3 -95 -15 -95 -12 0 -15 17 -15 95 l0 95 -30 0 c-20
0 -30 5 -30 15 0 12 16 15 80 15 64 0 80 -3 80 -15z"/>
<path d="M6846 2435 c-47 -17 -83 -42 -104 -73 l-14 -22 171 0 c161 0 171 1
162 18 -34 64 -143 104 -215 77z"/>
<path d="M2343 1708 c-30 -14 -44 -67 -32 -113 15 -55 63 -71 99 -35 30 30 28
103 -5 135 -27 28 -30 28 -62 13z"/>
<path d="M3162 1664 c-7 -26 -11 -49 -8 -51 2 -3 15 -3 29 -1 l24 3 -16 48
-16 48 -13 -47z"/>
<path d="M3330 1671 c0 -44 8 -49 55 -31 21 8 26 16 23 38 -3 23 -8 27 -40 30
l-38 3 0 -40z"/>
<path d="M5020 1669 c0 -41 0 -41 32 -35 73 14 76 68 4 74 l-36 3 0 -42z"/>
<path d="M5850 1625 c0 -82 1 -85 23 -85 56 0 90 64 67 125 -14 36 -26 45 -62
45 l-28 0 0 -85z"/>
</g>
</svg>
