<?xml version="1.0" standalone="no"?>
<!DOCTYPE svg PUBLIC "-//W3C//DTD SVG 20010904//EN"
 "http://www.w3.org/TR/2001/REC-SVG-20010904/DTD/svg10.dtd">
<svg version="1.0" xmlns="http://www.w3.org/2000/svg"
 width="400.000000pt" height="415.000000pt" viewBox="0 0 400.000000 415.000000"
 preserveAspectRatio="xMidYMid meet">

<g transform="translate(0.000000,415.000000) scale(0.100000,-0.100000)"
fill="#000000" stroke="none">
<path d="M640 2496 l0 -116 55 0 55 0 0 -385 0 -385 -55 0 -55 0 0 -115 0
-115 143 0 c78 0 186 3 240 7 l97 6 0 104 0 103 -55 0 -55 0 0 383 c1 374 1
381 18 337 10 -25 76 -208 147 -407 l130 -363 110 0 110 0 64 178 c35 97 92
258 126 357 35 99 70 198 78 220 14 37 16 13 16 -327 l1 -368 -55 0 -55 0 0
-115 0 -115 245 0 245 0 0 115 0 115 -60 0 -60 0 0 385 0 385 60 0 60 0 0 116
0 117 -254 -4 -255 -4 -132 -360 c-72 -198 -132 -361 -133 -362 -3 -3 -78 194
-188 492 -44 121 -81 221 -82 222 -1 1 -115 5 -253 9 l-253 7 0 -117z"/>
<path d="M2300 2498 l0 -108 55 0 55 0 0 -395 0 -395 -55 0 -55 0 0 -104 c0
-85 3 -105 16 -110 21 -8 301 -8 397 0 l77 7 0 103 0 104 -55 0 -55 0 0 95 0
95 98 0 c289 1 445 52 524 172 52 79 68 137 68 244 0 189 -82 309 -250 366
-59 19 -89 22 -335 25 -148 2 -318 4 -378 6 l-107 2 0 -107z m715 -122 c80
-34 115 -89 115 -184 0 -80 -61 -160 -138 -182 -20 -5 -99 -10 -174 -10 l-138
0 0 201 0 202 148 -5 c107 -4 158 -10 187 -22z"/>
</g>
</svg>
